<svg xmlns="http://www.w3.org/2000/svg" width="248" height="248" viewBox="0 0 248 248" fill="none"><path d="M124 0C126.086 0.0784358 128.168 0.515588 130.239 1.30859C131.01 1.60386 131.781 1.94786 132.549 2.3418C135.758 3.98748 138.937 6.49348 142.066 9.85156C142.087 9.87343 142.108 9.8952 142.128 9.91699C142.877 10.7189 143.646 11.4695 144.435 12.1621C148.41 15.6533 152.918 17.6389 158.253 16.9395C158.456 16.9128 158.66 16.8821 158.865 16.8477C159.401 16.7577 159.946 16.641 160.499 16.4961C160.701 16.4432 160.904 16.3876 161.108 16.3271C161.211 16.2967 161.314 16.2648 161.418 16.2324C161.606 16.1735 161.795 16.1113 161.985 16.0459C162.216 15.9666 162.448 15.8829 162.682 15.7939C163.072 15.6451 163.462 15.5003 163.852 15.3604C165.024 14.9402 166.197 14.5635 167.375 14.251C167.571 14.1988 167.768 14.1481 167.965 14.0996C168.358 14.0027 168.752 13.914 169.147 13.833C169.345 13.7925 169.542 13.754 169.74 13.7178C171.125 13.4642 172.52 13.3166 173.932 13.3096C176.15 13.2985 178.411 13.6336 180.736 14.4434C181.159 14.5906 181.584 14.7532 182.012 14.9326C187.859 17.3914 192.121 20.9225 194.489 26.0176C194.658 26.3812 194.814 26.7541 194.964 27.1338C194.989 27.1974 195.016 27.2601 195.041 27.3242C195.19 27.7149 195.328 28.1146 195.457 28.5225C195.77 29.5132 196.025 30.5551 196.215 31.6514C196.301 32.1463 196.395 32.6318 196.498 33.1084C196.617 33.6627 196.748 34.2047 196.89 34.7344C197.55 37.1966 198.457 39.3929 199.62 41.3291C199.775 41.5874 199.935 41.8408 200.1 42.0898C201.002 43.4589 202.043 44.6892 203.225 45.7822C203.439 45.9809 203.659 46.1746 203.884 46.3643C205.005 47.3128 206.243 48.149 207.602 48.874C207.873 49.0189 208.15 49.1589 208.431 49.2949C209.415 49.7714 210.458 50.1937 211.56 50.5625C212.506 50.8787 213.495 51.1556 214.528 51.3936C215.045 51.5126 215.573 51.6221 216.112 51.7217C217.19 51.9208 218.227 52.1788 219.223 52.4922C219.621 52.6176 220.013 52.7517 220.397 52.8945C221.066 53.1426 221.711 53.4194 222.337 53.7178C222.791 53.9344 223.234 54.1615 223.665 54.4033C223.836 54.4993 224.005 54.5975 224.172 54.6973C224.505 54.8965 224.832 55.1032 225.15 55.3174C225.31 55.4246 225.467 55.5336 225.623 55.6445C226.036 55.9385 226.433 56.2466 226.818 56.5654C228.756 58.17 230.342 60.0801 231.527 62.2197C231.616 62.3802 231.703 62.5421 231.787 62.7051C234.316 67.5899 234.811 73.5985 232.744 79.8418C229.047 90.9796 231.021 99.9594 240.184 107.756C250.729 116.735 250.552 131.414 239.966 140.439C239.458 140.872 238.974 141.309 238.511 141.75C238.436 141.821 238.362 141.891 238.289 141.962C238.207 142.042 238.125 142.122 238.044 142.202C237.839 142.404 237.64 142.608 237.444 142.812C237.397 142.861 237.349 142.909 237.303 142.958C236.997 143.281 236.705 143.608 236.422 143.936C236.386 143.978 236.348 144.018 236.312 144.061C236.034 144.387 235.767 144.717 235.511 145.048C235.478 145.09 235.445 145.132 235.413 145.174C234.773 146.012 234.204 146.865 233.704 147.734C232.482 149.858 231.673 152.076 231.262 154.406C231.196 154.78 231.139 155.157 231.094 155.537C231.017 156.173 230.97 156.818 230.95 157.471C230.943 157.707 230.939 157.944 230.939 158.183C230.94 158.415 230.943 158.648 230.95 158.882C230.961 159.255 230.982 159.63 231.011 160.009C231.051 160.535 231.108 161.066 231.182 161.603C231.217 161.861 231.256 162.12 231.299 162.381C231.338 162.617 231.38 162.854 231.426 163.092C231.594 163.977 231.805 164.877 232.06 165.793C232.243 166.453 232.448 167.12 232.675 167.796L232.882 168.436C232.948 168.648 233.012 168.86 233.072 169.072C233.435 170.343 233.696 171.598 233.857 172.829C233.911 173.239 233.954 173.647 233.986 174.052C234.419 179.52 232.879 184.48 229.724 188.365C229.49 188.653 229.247 188.934 228.996 189.21C227.488 190.865 225.667 192.299 223.564 193.462C223.214 193.656 222.856 193.842 222.49 194.021C222.124 194.199 221.75 194.37 221.369 194.533C220.988 194.696 220.599 194.85 220.203 194.997C220.005 195.07 219.805 195.142 219.603 195.211C219.284 195.32 218.96 195.423 218.632 195.522C217.715 195.799 216.764 196.036 215.779 196.227C210.953 197.163 207.025 198.911 203.952 201.516C203.734 201.701 203.519 201.89 203.31 202.084C202.976 202.392 202.654 202.71 202.343 203.04C202.203 203.187 202.066 203.336 201.931 203.488C200.753 204.813 199.738 206.306 198.885 207.972C198.774 208.188 198.666 208.408 198.56 208.63C198.468 208.824 198.378 209.02 198.29 209.218C198.132 209.573 197.981 209.935 197.837 210.305C197.659 210.759 197.493 211.224 197.335 211.7C197.149 212.262 196.976 212.838 196.817 213.43C196.788 213.54 196.762 213.651 196.733 213.762C196.597 214.293 196.468 214.835 196.352 215.391C196.104 216.591 195.803 217.738 195.452 218.829C195.382 219.047 195.31 219.264 195.236 219.478C195.088 219.905 194.931 220.324 194.768 220.734C194.522 221.349 194.259 221.944 193.979 222.518C193.793 222.901 193.598 223.274 193.396 223.639C193.195 224.003 192.986 224.359 192.77 224.705C192.555 225.051 192.331 225.388 192.102 225.715C189.225 229.808 185.256 232.439 180.513 233.442L179.939 233.555C179.747 233.59 179.554 233.622 179.359 233.651C179.165 233.681 178.969 233.708 178.772 233.732C177.787 233.854 176.773 233.911 175.731 233.899C172.816 233.868 169.69 233.31 166.408 232.194C163.362 231.163 160.469 230.667 157.721 230.704L157.31 230.714C157.173 230.718 157.036 230.724 156.9 230.731C153.773 230.897 150.836 231.769 148.078 233.344C146.519 234.234 145.017 235.348 143.57 236.687C143.348 236.892 143.126 237.104 142.906 237.32C142.466 237.753 142.031 238.207 141.602 238.683C141.426 238.877 141.25 239.069 141.074 239.257C140.722 239.633 140.368 239.997 140.013 240.35C139.302 241.054 138.586 241.709 137.866 242.316C137.506 242.62 137.145 242.911 136.782 243.19C136.058 243.749 135.329 244.259 134.597 244.72C131.117 246.91 127.558 248.003 124 248L123.428 247.97C123.239 247.957 123.05 247.94 122.861 247.921C122.842 247.919 122.824 247.917 122.805 247.915C122.637 247.898 122.469 247.878 122.301 247.856C122.257 247.851 122.214 247.843 122.171 247.837C122.03 247.817 121.889 247.797 121.748 247.774C121.694 247.766 121.641 247.756 121.587 247.747C121.459 247.725 121.33 247.703 121.202 247.679C121.127 247.664 121.052 247.648 120.977 247.633C120.864 247.61 120.751 247.587 120.639 247.562C120.568 247.546 120.497 247.528 120.427 247.512C120.32 247.487 120.213 247.461 120.106 247.435C120.017 247.412 119.927 247.388 119.838 247.364C119.743 247.339 119.648 247.313 119.553 247.286C119.467 247.262 119.382 247.237 119.297 247.212C119.185 247.179 119.073 247.145 118.961 247.109C118.898 247.09 118.835 247.069 118.772 247.049C118.653 247.01 118.533 246.969 118.413 246.928C118.343 246.903 118.272 246.88 118.202 246.854C118.088 246.814 117.975 246.771 117.861 246.729C117.789 246.701 117.716 246.674 117.643 246.646C117.53 246.601 117.418 246.556 117.305 246.51C117.232 246.48 117.159 246.45 117.087 246.42C116.979 246.375 116.872 246.327 116.765 246.28C116.69 246.247 116.615 246.215 116.54 246.182C116.412 246.124 116.284 246.064 116.155 246.003C116.101 245.977 116.047 245.953 115.993 245.927C115.443 245.662 114.894 245.371 114.346 245.056C114.273 245.014 114.201 244.97 114.128 244.927C114.011 244.858 113.893 244.79 113.776 244.719C113.718 244.683 113.66 244.646 113.602 244.609C113.481 244.535 113.36 244.461 113.24 244.384C113.171 244.34 113.103 244.295 113.034 244.25C112.915 244.172 112.795 244.094 112.676 244.014C112.621 243.977 112.566 243.939 112.511 243.901C112.378 243.811 112.246 243.72 112.113 243.627C112.071 243.597 112.029 243.566 111.986 243.536C111.835 243.428 111.683 243.32 111.532 243.208C111.508 243.19 111.485 243.172 111.461 243.154C111.307 243.04 111.153 242.925 110.999 242.807C110.957 242.775 110.916 242.742 110.874 242.71C110.74 242.606 110.606 242.5 110.473 242.393C110.409 242.342 110.346 242.291 110.282 242.239C110.172 242.15 110.063 242.06 109.953 241.969C109.884 241.911 109.814 241.854 109.745 241.796C109.608 241.681 109.472 241.564 109.336 241.445C109.297 241.411 109.258 241.378 109.219 241.344C109.066 241.21 108.913 241.075 108.761 240.938C108.733 240.913 108.705 240.887 108.678 240.862C108.513 240.713 108.348 240.561 108.184 240.407C108.163 240.388 108.143 240.369 108.122 240.35C107.987 240.223 107.853 240.094 107.718 239.964C107.668 239.916 107.617 239.868 107.567 239.819C107.206 239.468 106.846 239.106 106.486 238.732L105.934 238.148C105.587 237.776 105.237 237.415 104.883 237.064C104.528 236.714 104.17 236.375 103.807 236.049C103.08 235.397 102.336 234.795 101.572 234.25C101.381 234.114 101.189 233.981 100.996 233.852C100.609 233.594 100.217 233.351 99.8203 233.123C99.4233 232.896 99.0209 232.684 98.6132 232.489C98.2056 232.294 97.7927 232.115 97.374 231.954C96.5361 231.632 95.6752 231.381 94.79 231.206C94.5689 231.162 94.3462 231.124 94.122 231.09C94.0098 231.073 93.8971 231.057 93.7841 231.043C93.5581 231.014 93.3307 230.989 93.1015 230.971C92.4141 230.914 91.7122 230.904 90.9951 230.943C90.6363 230.963 90.2737 230.995 89.9072 231.039C89.1747 231.128 88.4265 231.268 87.662 231.461C87.407 231.525 87.1502 231.596 86.8915 231.673C86.633 231.749 86.3726 231.832 86.1103 231.921C85.8482 232.01 85.5842 232.105 85.3183 232.206C84.546 232.501 83.7733 232.778 82.9999 233.035C82.9111 233.065 82.8222 233.094 82.7333 233.123C82.6363 233.155 82.5394 233.186 82.4423 233.217C82.3454 233.248 82.2483 233.278 82.1513 233.308C82.051 233.339 81.9509 233.37 81.8505 233.4C81.766 233.426 81.6812 233.451 81.5966 233.476C81.497 233.505 81.3974 233.534 81.2978 233.562C81.2006 233.59 81.1031 233.617 81.0058 233.644C80.8905 233.675 80.7754 233.708 80.6601 233.738C80.6213 233.749 80.5827 233.759 80.5439 233.77C80.3959 233.808 80.2477 233.846 80.0995 233.883C79.9942 233.909 79.8886 233.934 79.7831 233.959C79.7144 233.975 79.6458 233.992 79.5771 234.008C79.4697 234.033 79.3623 234.056 79.2548 234.08C79.1393 234.105 79.0238 234.13 78.9081 234.154C78.8609 234.164 78.8138 234.174 78.7665 234.184C78.6195 234.213 78.4724 234.241 78.3251 234.269C78.2598 234.281 78.1943 234.292 78.1288 234.304C78.0191 234.323 77.9096 234.343 77.7997 234.361C77.6885 234.38 77.5771 234.397 77.4658 234.414C77.3776 234.428 77.2894 234.441 77.2011 234.453C77.1214 234.464 77.0416 234.475 76.9619 234.485C76.8252 234.503 76.6886 234.52 76.5517 234.536C76.4964 234.543 76.441 234.549 76.3857 234.555C76.2553 234.569 76.1247 234.582 75.9941 234.594C75.9105 234.601 75.8268 234.608 75.7431 234.615C75.6367 234.624 75.5303 234.632 75.4238 234.639C75.3369 234.644 75.25 234.65 75.163 234.655C75.0489 234.662 74.9346 234.666 74.8203 234.671C74.7334 234.674 74.6465 234.678 74.5595 234.681C74.4525 234.684 74.3454 234.685 74.2382 234.687C74.1465 234.688 74.0547 234.688 73.9628 234.688C73.8513 234.688 73.7396 234.687 73.6279 234.686C73.5417 234.684 73.4554 234.683 73.3691 234.681C73.2543 234.677 73.1394 234.672 73.0244 234.667C72.9414 234.663 72.8584 234.66 72.7753 234.655C72.6482 234.648 72.521 234.639 72.3935 234.629C72.3226 234.624 72.2516 234.618 72.1806 234.612C72.0444 234.601 71.908 234.587 71.7714 234.572C71.7087 234.566 71.6458 234.559 71.5829 234.552C71.4379 234.535 71.2928 234.515 71.1474 234.495C71.0889 234.487 71.0302 234.479 70.9716 234.471C70.8526 234.453 70.7335 234.434 70.6142 234.414C70.5183 234.398 70.4222 234.383 70.3261 234.365C70.219 234.346 70.1122 234.323 70.0048 234.302C69.9165 234.284 69.8277 234.268 69.7392 234.249C69.6182 234.223 69.4973 234.195 69.3759 234.167C69.2859 234.146 69.1956 234.126 69.1054 234.104C68.9698 234.07 68.8343 234.034 68.6982 233.997C68.6323 233.979 68.5659 233.963 68.4999 233.944C68.121 233.838 67.7407 233.719 67.3583 233.588C67.3233 233.576 67.2879 233.565 67.2529 233.553C67.0451 233.48 66.8367 233.404 66.6279 233.324L65.9882 233.067C65.5009 232.862 65.0246 232.65 64.5595 232.43C64.3269 232.32 64.097 232.208 63.8701 232.094C62.9625 231.638 62.1001 231.151 61.2841 230.63C61.0802 230.5 60.8787 230.368 60.6806 230.233C59.2936 229.292 58.0502 228.245 56.9579 227.081C56.6457 226.748 56.3459 226.406 56.0585 226.054C55.2595 225.074 54.5603 224.017 53.9589 222.879C53.8037 222.585 53.6524 222.287 53.5107 221.982C53.3415 221.618 53.1849 221.245 53.0351 220.865C52.9375 220.618 52.8431 220.367 52.7538 220.112C52.6573 219.837 52.5642 219.558 52.4775 219.274C52.1934 218.345 51.9619 217.37 51.7851 216.349C51.5183 214.81 51.1706 213.361 50.7411 211.999C50.6774 211.797 50.6113 211.597 50.5439 211.398C50.3519 210.833 50.1453 210.284 49.9238 209.75C49.904 209.702 49.8842 209.655 49.8642 209.607C49.6852 209.183 49.4967 208.769 49.2988 208.365C49.1597 208.081 49.0156 207.803 48.8671 207.528C48.8025 207.409 48.7373 207.29 48.6708 207.173C48.5054 206.88 48.3347 206.593 48.1581 206.312C48.0344 206.114 47.9075 205.92 47.7783 205.729C47.4272 205.208 47.0559 204.708 46.664 204.229C46.5118 204.042 46.3566 203.859 46.1982 203.679C45.2972 202.654 44.296 201.729 43.1923 200.9C43.0044 200.759 42.8139 200.621 42.6201 200.485C41.7283 199.863 40.7735 199.3 39.7548 198.796C39.5383 198.689 39.3189 198.584 39.0966 198.482C37.8876 197.929 36.5929 197.453 35.2109 197.056C34.4816 196.846 33.7282 196.656 32.9501 196.489C32.7756 196.452 32.5998 196.416 32.4228 196.381L31.8876 196.278C31.2432 196.159 30.6133 196.018 29.998 195.857C29.8992 195.832 29.8011 195.804 29.7031 195.777C29.6032 195.75 29.5033 195.724 29.4042 195.695C29.3425 195.678 29.2811 195.659 29.2197 195.641C28.8803 195.541 28.5455 195.435 28.2158 195.322C28.11 195.286 28.0051 195.248 27.9003 195.211C27.8112 195.179 27.7221 195.148 27.6337 195.115C27.5722 195.092 27.5113 195.068 27.4501 195.045C27.1346 194.925 26.8235 194.801 26.5175 194.67C26.4429 194.638 26.3689 194.605 26.2949 194.572C25.9906 194.438 25.6908 194.3 25.3964 194.154C25.3533 194.133 25.3104 194.111 25.2675 194.09C25.1377 194.025 25.0087 193.959 24.8808 193.892C24.8337 193.867 24.787 193.841 24.7402 193.816C24.612 193.748 24.4845 193.679 24.3583 193.608C24.3127 193.583 24.2679 193.556 24.2226 193.53C24.1086 193.465 23.995 193.401 23.8828 193.334C23.7892 193.279 23.6968 193.222 23.6044 193.165C23.536 193.123 23.4672 193.082 23.3994 193.039C23.3185 192.988 23.239 192.936 23.1591 192.884C23.0682 192.825 22.9774 192.766 22.8876 192.706C22.8455 192.678 22.8035 192.65 22.7617 192.621C22.6401 192.538 22.5196 192.455 22.4003 192.37C22.3608 192.342 22.3215 192.314 22.2822 192.285C22.1696 192.204 22.0578 192.122 21.9472 192.039C21.9119 192.013 21.8768 191.986 21.8417 191.959C21.7241 191.869 21.6074 191.779 21.4921 191.688C21.4479 191.652 21.4042 191.617 21.3603 191.581C21.2704 191.508 21.1811 191.435 21.0927 191.361C21.0231 191.303 20.9544 191.244 20.8857 191.185C20.8114 191.121 20.7372 191.057 20.664 190.992C20.6068 190.942 20.5506 190.89 20.4941 190.839C20.4112 190.764 20.3285 190.689 20.247 190.612C20.1952 190.564 20.1439 190.515 20.0927 190.466C20.0093 190.386 19.9265 190.306 19.8447 190.225C19.7862 190.167 19.7285 190.108 19.6708 190.05C19.6084 189.986 19.5458 189.923 19.4843 189.859C19.4082 189.78 19.3334 189.7 19.2587 189.619C19.2081 189.565 19.1573 189.51 19.1074 189.455C19.0338 189.374 18.9616 189.292 18.8896 189.21C18.8352 189.148 18.781 189.086 18.7275 189.023C18.6779 188.965 18.6289 188.907 18.58 188.849C18.5077 188.762 18.4359 188.675 18.3652 188.588C18.3178 188.529 18.2712 188.47 18.2245 188.411C18.1623 188.332 18.0999 188.254 18.039 188.174C17.9913 188.111 17.9443 188.048 17.8974 187.985C17.8286 187.893 17.7604 187.8 17.6933 187.707C17.6557 187.655 17.6191 187.602 17.582 187.549C17.5209 187.462 17.46 187.375 17.4003 187.287C17.3506 187.214 17.3016 187.14 17.2529 187.066C17.2001 186.986 17.1482 186.906 17.0966 186.825C17.0532 186.757 17.0103 186.689 16.9677 186.62C16.9149 186.535 16.862 186.45 16.8105 186.364C16.7681 186.294 16.726 186.223 16.6845 186.151C16.6313 186.06 16.579 185.968 16.5273 185.876C16.4935 185.816 16.4598 185.756 16.4267 185.695C16.3698 185.591 16.3147 185.487 16.2597 185.382C16.2277 185.321 16.1954 185.26 16.164 185.198C16.1169 185.106 16.071 185.013 16.0253 184.92C15.9893 184.846 15.953 184.773 15.9179 184.699C15.8782 184.616 15.8393 184.532 15.8007 184.447C15.7614 184.361 15.7227 184.275 15.6845 184.188C15.6496 184.109 15.6149 184.03 15.581 183.95C15.5441 183.863 15.5083 183.776 15.4726 183.688C15.4386 183.605 15.4049 183.521 15.372 183.438C15.339 183.353 15.3062 183.269 15.2744 183.185C15.2422 183.099 15.2106 183.014 15.1796 182.928C15.1448 182.831 15.1105 182.734 15.0771 182.637C15.0555 182.574 15.0346 182.511 15.0136 182.447C14.9783 182.341 14.9437 182.234 14.9101 182.127C14.8862 182.051 14.8638 181.974 14.8408 181.897C14.8095 181.793 14.7776 181.69 14.748 181.585C14.7258 181.506 14.7048 181.428 14.6835 181.349C14.6608 181.264 14.6378 181.18 14.6161 181.096C14.5906 180.996 14.567 180.895 14.5429 180.795C14.5202 180.7 14.4979 180.605 14.4765 180.51C14.46 180.436 14.4443 180.363 14.4286 180.289C14.4065 180.185 14.3847 180.081 14.3642 179.977C14.3491 179.9 14.3345 179.822 14.3203 179.745C14.3001 179.636 14.2801 179.527 14.2617 179.417C14.2469 179.329 14.2333 179.241 14.2197 179.152C14.206 179.064 14.1922 178.975 14.1796 178.887C14.1623 178.764 14.147 178.642 14.1318 178.519C14.124 178.455 14.1156 178.392 14.1083 178.329C14.0976 178.235 14.0885 178.141 14.079 178.047C14.0487 177.746 14.0235 177.443 14.0058 177.139C14.0024 177.08 13.9999 177.022 13.997 176.963C13.9909 176.84 13.9845 176.717 13.9804 176.594C13.9767 176.482 13.9756 176.37 13.9736 176.258C13.9722 176.178 13.9702 176.099 13.9697 176.02C13.9686 175.867 13.9695 175.714 13.9716 175.561C13.9722 175.518 13.9718 175.475 13.9726 175.432C13.9751 175.305 13.9797 175.179 13.9843 175.052C13.9867 174.987 13.9882 174.922 13.9911 174.857C13.9954 174.763 14.0013 174.668 14.0068 174.573C14.0354 174.075 14.0796 173.573 14.1415 173.068C14.1559 172.951 14.1732 172.834 14.1894 172.717C14.3956 171.22 14.7476 169.696 15.2568 168.158C17.3741 161.78 17.629 156.11 15.7411 150.964C15.6594 150.741 15.5742 150.519 15.4843 150.298C15.4098 150.115 15.332 149.932 15.2519 149.75C15.1996 149.631 15.1464 149.513 15.0917 149.395C14.8337 148.837 14.549 148.285 14.2372 147.739C14.1052 147.508 13.9688 147.278 13.8271 147.049C13.8065 147.016 13.7854 146.982 13.7646 146.949C13.6245 146.725 13.4805 146.502 13.331 146.28C13.2964 146.229 13.2606 146.178 13.2255 146.127C12.9927 145.787 12.7492 145.449 12.4941 145.114C12.4572 145.066 12.4201 145.017 12.3828 144.969C11.824 144.245 11.2133 143.532 10.5488 142.828C10.47 142.745 10.3898 142.662 10.3095 142.579C9.66787 141.915 8.9788 141.259 8.24017 140.611L7.81635 140.244C7.49073 139.967 7.17523 139.684 6.87006 139.396C6.77818 139.31 6.6886 139.221 6.59857 139.134C6.38848 138.929 6.18237 138.724 5.98236 138.515C5.71646 138.237 5.45995 137.954 5.21185 137.668C5.1925 137.646 5.1725 137.624 5.15326 137.602C5.06455 137.498 4.97795 137.394 4.89154 137.29C4.84704 137.236 4.80164 137.184 4.75775 137.13C4.55675 136.883 4.36394 136.633 4.17572 136.381C4.12551 136.314 4.07463 136.247 4.02533 136.18C3.97171 136.106 3.91967 136.032 3.86713 135.958C3.80622 135.872 3.74495 135.787 3.68549 135.701C3.60347 135.582 3.52355 135.463 3.44427 135.343C3.41705 135.302 3.38914 135.261 3.36224 135.22C3.17189 134.928 2.99049 134.632 2.81635 134.335C2.79577 134.3 2.77517 134.265 2.75482 134.229C2.69747 134.13 2.64143 134.03 2.58588 133.931C2.54601 133.859 2.50568 133.788 2.46674 133.716C2.41632 133.623 2.36716 133.529 2.3183 133.436C2.27801 133.358 2.23741 133.282 2.19818 133.204C2.14646 133.102 2.0967 132.999 2.04681 132.896C2.01559 132.832 1.98357 132.769 1.95306 132.704C1.89749 132.587 1.84415 132.469 1.79095 132.351C1.76176 132.286 1.73252 132.221 1.70404 132.156C1.66904 132.076 1.63542 131.996 1.6015 131.916C1.56373 131.827 1.52563 131.738 1.4892 131.648C1.45009 131.552 1.4125 131.456 1.37494 131.359C1.34465 131.282 1.31438 131.204 1.2851 131.126C1.24389 131.016 1.2042 130.906 1.16498 130.796C1.141 130.729 1.11693 130.661 1.09369 130.594C1.05734 130.488 1.02178 130.382 0.987244 130.276C0.965829 130.211 0.944484 130.145 0.923767 130.079C0.891289 129.976 0.860778 129.872 0.830017 129.769C0.80545 129.686 0.780247 129.603 0.756775 129.521C0.726352 129.413 0.698445 129.305 0.669861 129.197C0.652055 129.13 0.633243 129.063 0.61615 128.996C0.590221 128.894 0.566219 128.792 0.541931 128.689C0.522447 128.607 0.502742 128.526 0.484314 128.443C0.463023 128.348 0.442673 128.253 0.422791 128.158C0.405044 128.073 0.387658 127.988 0.371033 127.903C0.351709 127.804 0.333177 127.705 0.315369 127.606C0.298701 127.514 0.282857 127.421 0.267517 127.328C0.253921 127.246 0.241008 127.163 0.228455 127.081C0.215018 126.993 0.201635 126.905 0.189392 126.816C0.174422 126.708 0.160584 126.6 0.1474 126.492C0.13772 126.413 0.128774 126.333 0.120056 126.254C0.110775 126.169 0.101879 126.085 0.093689 126C0.0837734 125.898 0.0746636 125.795 0.0663452 125.692C0.0601453 125.616 0.0540795 125.539 0.0487671 125.463C0.0411295 125.353 0.0340639 125.243 0.0282593 125.133C0.0242962 125.058 0.0206253 124.982 0.0175171 124.907C0.0131035 124.8 0.00946684 124.694 0.0067749 124.587C0.00492223 124.513 0.00390476 124.44 0.00286865 124.366C0.00126666 124.253 0.000571243 124.139 0.000915527 124.025C0.00114879 123.949 0.00175336 123.872 0.00286865 123.796C0.00418176 123.706 0.00716588 123.616 0.00970459 123.525C0.0127126 123.419 0.0157209 123.312 0.0204468 123.205C0.0239045 123.127 0.0277876 123.049 0.0321655 122.971C0.0375131 122.875 0.0430244 122.78 0.0497437 122.685C0.056031 122.595 0.0637392 122.506 0.071228 122.417C0.0795693 122.318 0.088741 122.218 0.0985718 122.119C0.107603 122.028 0.11758 121.937 0.127869 121.846C0.137208 121.763 0.146791 121.68 0.157166 121.598C0.170251 121.493 0.184425 121.389 0.199158 121.285C0.210164 121.207 0.220436 121.129 0.232361 121.052C0.247459 120.953 0.263641 120.855 0.280212 120.757C0.294873 120.67 0.309321 120.583 0.325134 120.496C0.34425 120.391 0.364881 120.286 0.385681 120.182C0.400233 120.108 0.415228 120.035 0.430603 119.962C0.450042 119.869 0.470394 119.777 0.49115 119.685C0.514431 119.581 0.538478 119.477 0.563416 119.374C0.584021 119.289 0.606132 119.203 0.627869 119.118C0.647609 119.041 0.666766 118.963 0.687439 118.886C0.719965 118.764 0.754168 118.643 0.789001 118.521C0.805545 118.464 0.821742 118.406 0.838806 118.349C0.869878 118.244 0.902689 118.14 0.935486 118.035C0.962577 117.949 0.989249 117.862 1.01752 117.776C1.04817 117.683 1.08021 117.59 1.11224 117.497C1.1389 117.42 1.16471 117.342 1.19232 117.265C1.22841 117.164 1.2669 117.064 1.30463 116.963C1.33682 116.877 1.36792 116.791 1.40131 116.705C1.42845 116.635 1.45736 116.566 1.48529 116.497C1.52818 116.39 1.57141 116.284 1.61615 116.178C1.64794 116.102 1.68108 116.027 1.71381 115.952C1.75476 115.858 1.79541 115.764 1.83783 115.67C1.8746 115.589 1.91227 115.508 1.95013 115.427C1.9948 115.331 2.03968 115.236 2.08588 115.141C2.13117 115.047 2.17876 114.955 2.22552 114.862C2.26249 114.789 2.29799 114.715 2.33588 114.642C2.38725 114.542 2.44102 114.444 2.49408 114.346C2.53308 114.273 2.57135 114.2 2.61127 114.128C2.66786 114.026 2.72667 113.924 2.7851 113.822C2.8314 113.742 2.87729 113.66 2.92474 113.58C2.97362 113.497 3.02406 113.415 3.07416 113.333C3.1188 113.26 3.16233 113.185 3.20795 113.112C3.26646 113.019 3.32752 112.926 3.38763 112.833C3.43441 112.76 3.48052 112.687 3.52826 112.615C3.59681 112.512 3.66671 112.409 3.73724 112.306C3.77416 112.252 3.81014 112.197 3.8476 112.144C3.93723 112.015 4.02926 111.888 4.12201 111.761C4.14712 111.726 4.17187 111.692 4.1972 111.657C4.27732 111.549 4.35894 111.441 4.44135 111.333C4.48418 111.277 4.5268 111.221 4.57025 111.165C4.64186 111.073 4.71571 110.983 4.789 110.892C4.84433 110.823 4.89873 110.753 4.95502 110.685C5.16773 110.426 5.38882 110.172 5.61517 109.919C5.79925 109.713 5.98654 109.509 6.17963 109.308C6.22816 109.257 6.27799 109.208 6.32709 109.157C6.86261 108.608 7.43095 108.075 8.03412 107.561C8.62287 107.059 9.18155 106.551 9.71088 106.038C9.88499 105.869 10.0558 105.7 10.2236 105.53C10.3893 105.362 10.5523 105.194 10.7119 105.025C10.8279 104.902 10.9419 104.779 11.0546 104.655C11.1672 104.532 11.2783 104.408 11.3876 104.284C11.58 104.066 11.7669 103.846 11.9492 103.626C12.0781 103.47 12.2051 103.314 12.329 103.157C12.8274 102.526 13.2851 101.887 13.7031 101.238C14.4556 100.071 15.0786 98.8745 15.5751 97.6465C15.851 96.9643 16.0878 96.2724 16.2861 95.5703C16.3257 95.4301 16.3638 95.2895 16.4003 95.1484C16.693 94.0185 16.8873 92.8623 16.9853 91.6777C16.9976 91.5294 17.0083 91.3807 17.0175 91.2314C17.036 90.9337 17.0491 90.6343 17.0556 90.333C17.0589 90.1821 17.0602 90.0307 17.0605 89.8789C17.061 89.5757 17.0562 89.2707 17.0449 88.9639C17.0392 88.8104 17.032 88.6564 17.0234 88.502C17.0062 88.193 16.983 87.8821 16.954 87.5693C16.9396 87.4132 16.9236 87.2567 16.9062 87.0996C16.6623 84.898 16.1314 82.6028 15.3251 80.2041C15.1719 79.7498 15.0324 79.297 14.9052 78.8467C14.8983 78.8223 14.8925 78.7978 14.8857 78.7734C14.7258 78.2016 14.5853 77.6337 14.4667 77.0693C14.4324 76.906 14.401 76.7427 14.3701 76.5801C14.3215 76.3246 14.2764 76.0701 14.2363 75.8164C14.225 75.7451 14.2156 75.6737 14.205 75.6025C14.1559 75.274 14.1113 74.9474 14.0761 74.6221C14.0622 74.4933 14.0507 74.3646 14.039 74.2363C14.0317 74.1568 14.024 74.0774 14.0175 73.998C14.0092 73.8963 14.0029 73.7947 13.996 73.6934C13.9893 73.5945 13.9819 73.496 13.9765 73.3975C13.9696 73.2732 13.9647 73.1491 13.9599 73.0254C13.9573 72.9579 13.9541 72.8906 13.9521 72.8232C13.9471 72.6577 13.9446 72.4926 13.9433 72.3281C13.943 72.2969 13.9424 72.2656 13.9423 72.2344C13.9419 72.1163 13.9438 71.9984 13.9453 71.8809C13.9465 71.7824 13.9466 71.684 13.9492 71.5859C13.9508 71.5233 13.9539 71.4609 13.956 71.3984C13.9605 71.2656 13.9656 71.1331 13.9726 71.001C13.9791 70.8779 13.9875 70.7552 13.996 70.6328C14.0004 70.5703 14.0038 70.5077 14.0087 70.4453C14.0167 70.3444 14.0267 70.2439 14.0361 70.1436C14.0436 70.0634 14.0501 69.9832 14.0585 69.9033C14.0686 69.8073 14.0804 69.7117 14.0917 69.6162C14.1051 69.5039 14.1186 69.3919 14.1337 69.2803C14.1442 69.2029 14.1566 69.1259 14.1679 69.0488C14.1829 68.9471 14.1973 68.8454 14.2138 68.7441C14.2278 68.6582 14.2437 68.5728 14.2587 68.4873C14.2755 68.3921 14.2905 68.2968 14.3085 68.2021C14.3274 68.1031 14.3488 68.0047 14.3691 67.9062C14.3871 67.8189 14.4046 67.7315 14.4238 67.6445C14.4432 67.5563 14.4647 67.4686 14.4853 67.3809C14.5071 67.2877 14.5276 67.1942 14.5507 67.1016C14.5721 67.016 14.5946 66.9308 14.6171 66.8457C14.6434 66.7461 14.6704 66.6468 14.6982 66.5479C14.7219 66.4636 14.7467 66.3797 14.7714 66.2959C14.7985 66.2043 14.8251 66.1126 14.8535 66.0215C14.8804 65.9351 14.9094 65.8495 14.9374 65.7637C14.9695 65.6654 15.0015 65.5673 15.0351 65.4697C15.0533 65.4168 15.0721 65.3642 15.0908 65.3115C15.1333 65.1915 15.1768 65.072 15.2216 64.9531C15.2453 64.8904 15.2696 64.828 15.2939 64.7656C15.3348 64.6604 15.3762 64.5555 15.4189 64.4512C15.4476 64.3809 15.4772 64.3111 15.5068 64.2412C15.5488 64.1418 15.592 64.0429 15.6357 63.9443C15.6725 63.8613 15.71 63.7787 15.748 63.6963C15.787 63.6115 15.8259 63.5266 15.8661 63.4424C15.8949 63.3824 15.9237 63.3224 15.9531 63.2627C16.0008 63.1656 16.0492 63.0689 16.0986 62.9727C16.1408 62.8902 16.184 62.8083 16.2275 62.7266C16.2706 62.6454 16.315 62.5649 16.3593 62.4844C16.4081 62.3957 16.4576 62.3076 16.5078 62.2197C16.5522 62.142 16.597 62.0645 16.6425 61.9873C16.6822 61.92 16.7221 61.8529 16.7626 61.7861C16.8134 61.7024 16.8649 61.6191 16.9169 61.5361C16.9591 61.469 17.0009 61.4016 17.0439 61.335C17.0978 61.2515 17.1527 61.1686 17.2079 61.0859C17.2559 61.0142 17.3036 60.9423 17.3525 60.8711C17.4103 60.787 17.469 60.7034 17.5283 60.6201C17.576 60.5529 17.6251 60.4866 17.6738 60.4199C17.728 60.3457 17.7825 60.2717 17.8378 60.1982C17.8976 60.1189 17.9574 60.0395 18.0185 59.9609C18.0614 59.9057 18.1048 59.8507 18.1484 59.7959C18.2199 59.7059 18.2919 59.6162 18.3652 59.5273C18.4161 59.4655 18.4677 59.4041 18.5195 59.3428C18.5793 59.2719 18.6402 59.2019 18.7011 59.1318C18.7655 59.0578 18.8308 58.9844 18.8964 58.9111C18.9642 58.8355 19.0324 58.7602 19.1015 58.6855C19.1688 58.6127 19.2371 58.5407 19.3056 58.4688C19.355 58.4169 19.4041 58.3648 19.454 58.3135C19.5369 58.2283 19.6214 58.1444 19.706 58.0605C19.754 58.0129 19.8019 57.9652 19.8505 57.918C19.9149 57.8555 19.9796 57.7932 20.0449 57.7314C20.1219 57.6586 20.1999 57.5865 20.2783 57.5146C20.3378 57.46 20.3976 57.4056 20.4579 57.3516C20.5321 57.2852 20.6063 57.2188 20.6816 57.1533C20.7723 57.0745 20.8646 56.9974 20.957 56.9199C21.0063 56.8785 21.0556 56.8369 21.1054 56.7959C21.1926 56.7241 21.2804 56.6527 21.3691 56.582C21.431 56.5327 21.493 56.4833 21.5556 56.4346C21.6325 56.3748 21.7101 56.3158 21.788 56.2568C21.868 56.1963 21.9481 56.1357 22.0292 56.0762C22.0983 56.0254 22.1683 55.9758 22.2382 55.9258C22.3189 55.868 22.3996 55.8098 22.4814 55.7529C22.5753 55.6876 22.6703 55.6236 22.7656 55.5596C22.8309 55.5156 22.8959 55.4711 22.9619 55.4277C23.0477 55.3713 23.1346 55.3162 23.2216 55.2607C23.3021 55.2095 23.3824 55.1578 23.4638 55.1074C23.5403 55.0601 23.618 55.0144 23.6953 54.9678C23.793 54.9088 23.8911 54.8497 23.9902 54.792C24.0768 54.7415 24.1643 54.6921 24.2519 54.6426C24.324 54.6018 24.3959 54.5606 24.4687 54.5205C24.5856 54.4561 24.7036 54.3928 24.8222 54.3301C24.8816 54.2987 24.9411 54.2673 25.0009 54.2363C25.0867 54.1919 25.173 54.1481 25.2597 54.1045C25.3649 54.0516 25.4706 53.9989 25.5771 53.9473C25.644 53.9149 25.7119 53.8844 25.7792 53.8525C25.8853 53.8024 25.9912 53.751 26.0986 53.7021C26.216 53.6487 26.3351 53.5978 26.454 53.5459C26.525 53.5149 26.5955 53.4826 26.6669 53.4521C26.8006 53.3953 26.9358 53.341 27.0712 53.2861C27.1169 53.2676 27.1621 53.2478 27.2079 53.2295L27.2714 53.2041C27.3705 53.1649 27.4702 53.127 27.5703 53.0889C27.6553 53.0565 27.7404 53.0238 27.8261 52.9922C28.3205 52.8097 28.8266 52.6409 29.3437 52.4844C30.2676 52.2048 31.2269 51.9661 32.2206 51.7734C32.5601 51.7076 32.895 51.6374 33.2255 51.5635C34.2173 51.3418 35.1695 51.0847 36.082 50.79C36.5381 50.6427 36.9843 50.486 37.4208 50.3203C37.7117 50.2099 37.9981 50.0952 38.2802 49.9766C38.7038 49.7985 39.1174 49.6107 39.5214 49.4141C39.9255 49.2174 40.3203 49.0122 40.705 48.7969C41.3459 48.4381 41.9594 48.0526 42.5468 47.6416C42.7818 47.4771 43.0127 47.3086 43.2392 47.1357C43.3526 47.0492 43.4649 46.9617 43.5761 46.873C43.798 46.6962 44.0159 46.5154 44.2294 46.3301C44.5502 46.0517 44.8612 45.7634 45.163 45.4658C45.5653 45.0692 45.9506 44.6555 46.3193 44.2246C46.4114 44.1169 46.5026 44.0083 46.5927 43.8984C47.5838 42.6899 48.4491 41.3514 49.1904 39.8799C49.3925 39.4787 49.5847 39.0674 49.7685 38.6465C49.891 38.3657 50.0095 38.0806 50.124 37.791C50.2384 37.5015 50.3487 37.2076 50.455 36.9092C50.9336 35.5663 51.3309 34.1336 51.6474 32.6094C52.045 30.6882 52.577 28.9052 53.2324 27.2656C53.478 26.651 53.7406 26.0564 54.0204 25.4824C55.5136 22.4201 57.4858 19.94 59.8535 18.0859C60.7413 17.3906 61.685 16.7836 62.6796 16.2666C62.8649 16.1703 63.0524 16.0783 63.2411 15.9883C64.5906 15.3449 66.0291 14.8621 67.5468 14.5459C67.907 14.4709 68.2716 14.4049 68.6406 14.3486C68.835 14.319 69.0307 14.292 69.2275 14.2676C70.2126 14.1456 71.2271 14.0894 72.2685 14.1006C75.1841 14.1319 78.3104 14.6905 81.5917 15.8057C84.6378 16.8372 87.5312 17.3333 90.2792 17.2959C90.9663 17.2865 91.6443 17.244 92.3134 17.168C92.4472 17.1528 92.5807 17.136 92.7138 17.1182C93.2462 17.0466 93.7728 16.953 94.2939 16.8389C94.5544 16.7818 94.8136 16.7201 95.0712 16.6523C95.3292 16.5845 95.5856 16.5111 95.8408 16.4326C96.2231 16.315 96.6023 16.1855 96.9785 16.0439C97.3545 15.9024 97.7277 15.7494 98.0976 15.584C98.7143 15.3082 99.3221 14.9986 99.9218 14.6562C101.481 13.7664 102.983 12.6519 104.43 11.3135C104.652 11.1075 104.874 10.8962 105.094 10.6797C105.534 10.2467 105.969 9.79269 106.398 9.31738C107.802 7.76289 109.23 6.40329 110.675 5.23828C110.855 5.09279 111.036 4.94997 111.217 4.81055C111.579 4.53136 111.943 4.26462 112.308 4.00977C112.49 3.88245 112.672 3.75796 112.854 3.63672C113.22 3.39412 113.586 3.16361 113.953 2.94531C114.137 2.83608 114.321 2.7301 114.505 2.62695C114.873 2.42088 115.241 2.22673 115.61 2.04492C115.98 1.86303 116.35 1.69374 116.721 1.53613C117.277 1.29974 117.834 1.09098 118.393 0.90918C120.254 0.303091 122.127 8.45873e-06 124 0Z" fill="#FAE1D7"></path></svg>