<svg xmlns="http://www.w3.org/2000/svg" width="1440" height="178" viewBox="0 0 1440 178" fill="none"><path d="M1440 0V173.53L1437.05 176.102C1434.16 178.636 1429.96 178.636 1427.06 176.102L1423.54 173.037C1419.66 169.639 1414.02 169.639 1410.14 173.037L1406.63 176.102C1403.73 178.636 1399.52 178.636 1396.64 176.102L1393.12 173.037C1389.24 169.639 1383.59 169.639 1379.72 173.037L1376.2 176.102C1373.31 178.636 1369.11 178.636 1366.2 176.102L1362.7 173.037C1358.81 169.639 1353.17 169.639 1349.3 173.037L1345.78 176.102C1342.88 178.636 1338.69 178.636 1335.78 176.102L1332.27 173.037C1328.39 169.639 1322.75 169.639 1318.86 173.037L1315.36 176.102C1312.46 178.636 1308.25 178.636 1305.35 176.102L1301.84 173.037C1297.96 169.639 1292.32 169.639 1288.44 173.037L1284.93 176.102C1282.03 178.636 1277.84 178.636 1274.93 176.102L1271.41 173.037C1267.54 169.639 1261.9 169.639 1258.01 173.037L1254.5 176.102C1251.61 178.636 1247.4 178.636 1244.51 176.102L1240.99 173.037C1237.11 169.639 1231.46 169.639 1227.59 173.037L1224.07 176.102C1221.19 178.636 1216.99 178.636 1214.08 176.102L1210.57 173.037C1206.68 169.639 1201.04 169.639 1197.16 173.037L1193.65 176.102C1190.75 178.636 1186.54 178.636 1183.66 176.102L1180.14 173.037C1176.27 169.639 1170.62 169.639 1166.74 173.037L1163.22 176.102C1160.33 178.636 1156.13 178.636 1153.23 176.102L1149.72 173.037C1145.82 169.639 1140.19 169.639 1136.32 173.037L1132.8 176.102C1129.9 178.636 1125.71 178.636 1122.8 176.102L1119.29 173.037C1115.41 169.639 1109.77 169.639 1105.89 173.037L1102.38 176.102C1099.48 178.636 1095.27 178.636 1092.38 176.102L1088.87 173.037C1087.03 171.433 1084.72 170.541 1082.35 170.494C1082.35 170.494 1082.29 170.494 1082.26 170.494C1082.23 170.494 1082.2 170.484 1082.17 170.484C1079.79 170.541 1077.49 171.433 1075.65 173.037L1072.14 176.102C1069.24 178.636 1065.03 178.636 1062.15 176.102L1058.63 173.037C1054.73 169.639 1049.1 169.639 1045.23 173.037L1041.71 176.102C1038.82 178.636 1034.62 178.636 1031.71 176.102L1028.2 173.037C1024.32 169.639 1018.68 169.639 1014.8 173.037L1011.29 176.102C1008.39 178.636 1004.18 178.636 1001.29 176.102L997.775 173.037C993.901 169.639 988.248 169.639 984.375 173.037L980.857 176.102C977.969 178.636 973.77 178.636 970.862 176.102L967.354 173.037C963.46 169.639 957.827 169.639 953.953 173.037L950.435 176.102C947.538 178.636 943.349 178.636 940.441 176.102L936.923 173.037C933.049 169.639 927.406 169.639 923.522 173.037L920.014 176.102C917.117 178.636 912.907 178.636 910.01 176.102L906.502 173.037C902.608 169.639 896.975 169.639 893.101 173.037L889.583 176.102C886.685 178.636 882.496 178.636 879.588 176.102L876.071 173.037C872.197 169.639 866.554 169.639 862.67 173.037L859.162 176.102C856.264 178.636 852.055 178.636 849.167 176.102L845.649 173.037C841.755 169.639 836.122 169.639 832.249 173.037L828.731 176.102C825.843 178.636 821.644 178.636 818.736 176.102L815.228 173.037C811.334 169.639 805.701 169.639 801.817 173.037L798.31 176.102C795.412 178.636 791.203 178.636 788.315 176.102L784.797 173.037C780.923 169.639 775.28 169.639 771.396 173.037L767.878 176.102C764.991 178.636 760.792 178.636 757.884 176.102L754.376 173.037C750.482 169.639 744.849 169.639 740.975 173.037L737.457 176.102C734.56 178.636 730.371 178.636 727.463 176.102L723.945 173.037C722.074 171.395 719.695 170.494 717.255 170.484C716.045 170.494 714.835 170.721 713.696 171.148C712.567 171.575 711.51 172.221 710.564 173.037L707.046 176.102C704.159 178.636 699.96 178.636 697.052 176.102L693.544 173.037C689.65 169.639 684.017 169.639 680.143 173.037L676.625 176.102C673.728 178.636 669.518 178.636 666.631 176.102L663.113 173.037C659.239 169.639 653.596 169.639 649.712 173.037L646.194 176.102C643.306 178.636 639.107 178.636 636.199 176.102L632.692 173.037C628.797 169.639 623.165 169.639 619.291 173.037L615.773 176.102C612.875 178.636 608.686 178.636 605.778 176.102L602.26 173.037C598.387 169.639 592.744 169.639 588.86 173.037L585.352 176.102C582.454 178.636 578.245 178.636 575.357 176.102L571.839 173.037C567.945 169.639 562.312 169.639 558.438 173.037L554.921 176.102C552.033 178.636 547.834 178.636 544.926 176.102L541.408 173.037C537.534 169.639 531.891 169.639 528.007 173.037L524.499 176.102C521.602 178.636 517.392 178.636 514.505 176.102L510.987 173.037C507.113 169.639 501.47 169.639 497.586 173.037L494.068 176.102C491.181 178.636 486.981 178.636 484.074 176.102L480.566 173.037C476.682 169.639 471.039 169.639 467.165 173.037L463.647 176.102C460.749 178.636 456.54 178.636 453.652 176.102L450.134 173.037C446.261 169.639 440.618 169.639 436.734 173.037L433.226 176.102C430.328 178.636 426.119 178.636 423.221 176.102L419.713 173.037C415.829 169.639 410.186 169.639 406.313 173.037L402.795 176.102C399.897 178.636 395.708 178.636 392.8 176.102L389.282 173.037C385.408 169.639 379.765 169.639 375.881 173.037L372.374 176.102C369.476 178.636 365.267 178.636 362.379 176.102L358.861 173.037C356.99 171.395 354.611 170.494 352.181 170.484H352.161C350.941 170.494 349.751 170.721 348.612 171.148C347.484 171.575 346.426 172.221 345.481 173.037L341.973 176.102C339.075 178.636 334.866 178.636 331.968 176.102L328.46 173.037C324.576 169.639 318.933 169.639 315.06 173.037L311.542 176.102C308.654 178.636 304.455 178.636 301.547 176.102L298.029 173.037C294.155 169.639 288.512 169.639 284.628 173.037L281.12 176.102C278.223 178.636 274.013 178.636 271.126 176.102L267.608 173.037C263.734 169.639 258.081 169.639 254.207 173.037L250.689 176.102C247.802 178.636 243.602 178.636 240.695 176.102L237.187 173.037C233.303 169.639 227.66 169.639 223.786 173.037L220.268 176.102C217.37 178.636 213.161 178.636 210.273 176.102L206.756 173.037C202.882 169.639 197.239 169.639 193.355 173.037L189.847 176.102C186.949 178.636 182.74 178.636 179.842 176.102L176.334 173.037C172.45 169.639 166.808 169.639 162.934 173.037L159.416 176.102C156.518 178.636 152.329 178.636 149.421 176.102L145.903 173.037C142.029 169.639 136.386 169.639 132.502 173.037L128.995 176.102C126.097 178.636 121.888 178.636 119 176.102L115.482 173.037C111.598 169.639 105.955 169.639 102.081 173.037L98.5634 176.102C95.6758 178.636 91.4767 178.636 88.5688 176.102L85.061 173.037C81.177 169.639 75.5341 169.639 71.6501 173.037L68.1423 176.102C65.2446 178.636 61.0352 178.636 58.1477 176.102L54.6297 173.037C50.7559 169.639 45.113 169.639 41.229 173.037L37.711 176.102C34.8235 178.636 30.6243 178.636 27.7164 176.102L24.2086 173.037C20.3246 169.639 14.6817 169.639 10.8079 173.037L7.28993 176.102C5.12426 178 2.23669 178.474 -0.305176 177.535V0H1439.69H1440Z" fill="#DAC8DF"></path></svg>